<svg fill="none" height="55" viewBox="0 0 278 55" width="278" xmlns="http://www.w3.org/2000/svg"><path d="m277.996 9.20945c.026-5.08071-4.108-9.20945-9.216-9.20945h-215.1287c-5.0906 0-9.2168 4.10379-9.2168 9.16667 0 5.06283 4.1262 9.16663 9.2168 9.16663h14.0957c5.0905 0 9.2167 4.1038 9.2167 9.1667s-4.1262 9.1667-9.2167 9.1667h-58.53028c-5.09053 0-9.21672 4.1038-9.21672 9.1666 0 5.0629 4.12619 9.1667 9.21672 9.1667h215.08928c5.09 0 9.216-4.1038 9.216-9.1667 0-5.0628-4.126-9.1666-9.216-9.1666h-14.096c-5.091 0-9.217-4.1038-9.217-9.1667s4.126-9.1667 9.217-9.1667h58.573c5.073 0 9.192-4.0788 9.217-9.12385z" fill="#fff"/></svg>