<svg width="156" height="167" fill="none" xmlns="http://www.w3.org/2000/svg"><g clip-path="url(#a)"><path d="m81.556 120.84 18.398-2.191-18.463-2.197 8.155-9.539-9.461 8.161-2.181-18.475-2.189 18.475-9.461-8.161 8.155 9.539-18.463 2.197 18.398 2.191-8.09 9.465 9.454-8.154 2.196 18.549 2.188-18.549 9.454 8.154-8.09-9.465Z" fill="#fff"/><path fill-rule="evenodd" clip-rule="evenodd" d="M123.093 118.679V53.904c0-12.01-4.75-23.527-13.206-32.019A44.994 44.994 0 0 0 78.004 8.623 44.993 44.993 0 0 0 46.12 21.885a45.379 45.379 0 0 0-13.207 32.019v64.775l-8.593 10.38V53.904A54.024 54.024 0 0 1 40.263 16.19 53.566 53.566 0 0 1 78 .62a53.568 53.568 0 0 1 37.738 15.569 54.028 54.028 0 0 1 15.941 37.714v75.148l-8.586-10.373Z" fill="#fff"/><path d="M29.712 146.619v-.439H24.35v.439l2.189.872-4.173 12.374-4.377-11.209a3.986 3.986 0 0 0-3.917-2.476h-3.494v.439l1.597.294 2.145 5.465-2.553 7.509-4.377-11.209a3.737 3.737 0 0 0-1.386-1.773 4.255 4.255 0 0 0-2.524-.732H0v.439l1.598.293 7.82 19.941h.875l4.494-13.304 5.215 13.304h.869l6.521-19.362 2.32-.865ZM34.592 151.572a7.051 7.051 0 0 0-3.047.397 7.091 7.091 0 0 0-4.243 4.258 7.14 7.14 0 0 0-.399 3.059 7.765 7.765 0 0 0 2.036 5.677 7.697 7.697 0 0 0 5.653 2.066c1.025.06 2.05-.09 3.016-.44a7.588 7.588 0 0 0 2.601-1.596 7.675 7.675 0 0 0 2.101-5.707 7.18 7.18 0 0 0-2.073-5.659 7.092 7.092 0 0 0-5.645-2.055Zm1.94 13.186c-.525 1.085-1.174 1.627-1.94 1.627s-1.459-.542-1.977-1.627c-.518-1.084-.78-2.93-.78-5.501 0-2.572.262-4.396.78-5.502.518-1.106 1.204-1.634 1.977-1.634.773 0 1.415.542 1.94 1.634.526 1.091.81 2.93.81 5.502 0 2.571-.27 4.439-.81 5.531v-.03ZM58.986 156.37a4.199 4.199 0 0 0-.73-2.329 5.228 5.228 0 0 0-2.027-1.773 5.912 5.912 0 0 0-2.918-.696 4.355 4.355 0 0 0-3.247 1.304 5.7 5.7 0 0 0-.955 1.311 4.034 4.034 0 0 0-.635-1.077 3.447 3.447 0 0 0-2.7-1.106h-2.589v.44l1.744.432v12.813l-1.744.439v.432h8.12v-.432l-1.737-.439V154.92a4.88 4.88 0 0 1 .635-1.165 2.48 2.48 0 0 1 1.97-1.165 1.81 1.81 0 0 1 1.51.989c.496.842.728 1.815.663 2.791v7.575c0 1.744.876 2.615 2.612 2.615h3.772v-.432l-1.744-.439v-9.319ZM75.947 148.803c0-1.744-.869-2.623-2.612-2.623H69.57v.44l1.736.439v5.678a4.207 4.207 0 0 0-.897-.586 4.903 4.903 0 0 0-2.437-.579 5.864 5.864 0 0 0-4.668 2.007c-1.138 1.319-1.707 3.221-1.707 5.707a10.347 10.347 0 0 0 .78 4.22 6.21 6.21 0 0 0 2.116 2.622c.905.596 1.966.91 3.049.901a4.41 4.41 0 0 0 3.217-1.34c.382-.387.704-.829.956-1.312.132.41.348.786.634 1.107a3.44 3.44 0 0 0 2.7 1.076h2.603v-.432l-1.736-.439.03-16.886Zm-4.64 14.849c-.188.407-.41.796-.664 1.165a2.451 2.451 0 0 1-1.94 1.165c-.62 0-1.146-.491-1.569-1.465-.423-.975-.605-2.74-.605-5.238 0-2.623.221-4.418.664-5.385a2.137 2.137 0 0 1 1.94-1.465 2.565 2.565 0 0 1 1.51.579c.235.179.457.375.664.586v10.058ZM89.457 152.378a7.988 7.988 0 0 0-3.648-.784 7.266 7.266 0 0 0-3.713.93 6.403 6.403 0 0 0-2.495 2.674 8.881 8.881 0 0 0-.897 4.11 7.721 7.721 0 0 0 2.057 5.677c1.371 1.353 3.295 2.032 5.77 2.037.99.02 1.972-.191 2.867-.615a5.07 5.07 0 0 0 1.948-1.685c.456-.644.71-1.409.73-2.198h-.73a3.346 3.346 0 0 1-.584 1.831 4.095 4.095 0 0 1-1.539 1.429c-.64.35-1.358.53-2.086.52a2.867 2.867 0 0 1-2.546-1.421c-.623-.977-.931-2.589-.927-4.835a42.797 42.797 0 0 0 6.143-.44c.963-.11 1.867-.256 2.699-.432l.138-.498c.108-.409.157-.83.146-1.253a5.142 5.142 0 0 0-.868-2.93 5.796 5.796 0 0 0-2.465-2.117Zm-1.62 5.999c-.08.33-.131.543-.146.638a6.923 6.923 0 0 1-1.043.146c-1 .109-2.007.157-3.013.147 0-4.755.773-7.099 2.189-7.136.598 0 1.109.381 1.532 1.136a7.353 7.353 0 0 1 .642 3.524 8.076 8.076 0 0 1-.16 1.523v.022ZM104.316 151.857a5.054 5.054 0 0 0-3.246 1.165c-.409.337-.77.729-1.072 1.165a4.034 4.034 0 0 0-.635-1.077 3.447 3.447 0 0 0-2.7-1.106h-2.61v.44l1.743.432v12.813l-1.744.439v.432h8.119v-.432l-1.736-.439V154.92c.258-.427.57-.818.927-1.165.35-.363.768-.653 1.23-.852.462-.2.959-.307 1.461-.313v4.073l.351.088c.268.038.538.057.809.059a2.03 2.03 0 0 0 1.596-.595 2.062 2.062 0 0 0 .593-1.603 2.575 2.575 0 0 0-.781-2.037 3.191 3.191 0 0 0-2.305-.718ZM115.506 151.572a7.95 7.95 0 0 0-4.542 1.225 8.007 8.007 0 0 0-3.067 3.581 8.039 8.039 0 0 0 1.673 8.87 7.956 7.956 0 0 0 8.832 1.68 7.994 7.994 0 0 0 3.566-3.08 8.039 8.039 0 0 0 1.22-4.562 7.175 7.175 0 0 0-2.061-5.644 7.116 7.116 0 0 0-5.621-2.07Zm1.941 13.186c-.525 1.085-1.175 1.627-1.941 1.627s-1.459-.542-1.977-1.627c-.517-1.084-.78-2.93-.78-5.501 0-2.572.263-4.396.78-5.502.518-1.106 1.204-1.634 1.977-1.634.774 0 1.416.542 1.941 1.634.525 1.091.81 2.93.81 5.502 0 2.571-.27 4.439-.81 5.531v-.03ZM133.495 152.444l1.737.432v10.776a7.404 7.404 0 0 1-.664 1.165 2.454 2.454 0 0 1-1.941 1.165 1.883 1.883 0 0 1-1.539-.96 5.282 5.282 0 0 1-.635-2.828v-7.567c0-1.751-.875-2.623-2.611-2.623h-3.772v.44l1.744.432v9.318c.007.832.261 1.643.729 2.33a5.445 5.445 0 0 0 1.999 1.802 6.333 6.333 0 0 0 2.918.674 4.404 4.404 0 0 0 3.246-1.311 6.63 6.63 0 0 0 .956-1.312c.156.449.413.855.751 1.187a4.227 4.227 0 0 0 3.217 1.165h.292v-13.853l1.744-.432v-.44h-8.171v.44ZM155.336 160.736a5.73 5.73 0 0 0-1.568-1.465 22.035 22.035 0 0 0-2.437-1.399 17.404 17.404 0 0 1-2.808-1.692 2.293 2.293 0 0 1-.927-1.861 2.057 2.057 0 0 1 .547-1.465 1.798 1.798 0 0 1 1.335-.579c1.335 0 2.481.733 3.451 2.271a10.57 10.57 0 0 1 1.072 2.242h1.16v-4.952h-.729c-.059 0-.256.131-.584.322a4.51 4.51 0 0 0-1.014.989 7.1 7.1 0 0 0-1.101-.769 5.265 5.265 0 0 0-2.838-.814c-2.072 0-3.604.367-4.611 1.107a3.341 3.341 0 0 0-1.458 2.82 3.862 3.862 0 0 0 .663 2.242 6.94 6.94 0 0 0 1.656 1.575c.657.403 1.51.872 2.553 1.392a18.148 18.148 0 0 1 2.663 1.633 1.907 1.907 0 0 1 .875 1.605 2.3 2.3 0 0 1-.641 1.743 2.551 2.551 0 0 1-1.824.579 4.526 4.526 0 0 1-3.83-2.242 8.262 8.262 0 0 1-1.101-2.271h-1.16v4.953h.729c.201-.091.394-.199.576-.323a3.672 3.672 0 0 0 1.014-.989c.336.325.717.598 1.131.813a6.545 6.545 0 0 0 3.217.792c4.45 0 6.672-1.407 6.668-4.22a3.285 3.285 0 0 0-.679-2.037Z" fill="#F08D5C"/><path fill-rule="evenodd" clip-rule="evenodd" d="M105.914 97.822V53.904a28.098 28.098 0 0 0-8.334-19.531A27.857 27.857 0 0 0 78 26.32a27.857 27.857 0 0 0-19.58 8.052 28.094 28.094 0 0 0-8.334 19.53V97.86l27.918-33.831 27.91 33.794Z" fill="#F08D5C"/></g><defs><clipPath id="a"><path fill="#fff" d="M0 0h156v167H0z"/></clipPath></defs></svg>