<svg width="248" height="49" viewBox="0 0 248 49" fill="none" xmlns="http://www.w3.org/2000/svg">
<path d="M247.997 8.20478C248.019 3.67834 244.332 0 239.775 0H47.8616C43.3204 0 39.6394 3.6561 39.6394 8.16667C39.6394 12.6772 43.3204 16.3333 47.8616 16.3333H60.4362C64.9774 16.3333 68.6583 19.9894 68.6583 24.5C68.6583 29.0106 64.9774 32.6667 60.4362 32.6667H8.22211C3.68092 32.6667 0 36.3228 0 40.8333C0 45.3439 3.68092 49 8.22211 49H200.1C204.641 49 208.322 45.3439 208.322 40.8333C208.322 36.3228 204.641 32.6667 200.1 32.6667H187.525C182.984 32.6667 179.303 29.0106 179.303 24.5C179.303 19.9894 182.984 16.3333 187.525 16.3333H239.778C244.303 16.3333 247.978 12.6995 248 8.20478H247.997Z" fill="#FAE5C8"/>
</svg>
